<svg xmlns="http://www.w3.org/2000/svg" width="720" height="120">
<text x="20" y="25" font-size="18">C_12, stride 5</text>
<line x1="30.0" y1="62" x2="70.0" y2="62" stroke="black"/>
<line x1="90.0" y1="62" x2="130.0" y2="62" stroke="black"/>
<line x1="150.0" y1="62" x2="190.0" y2="62" stroke="black"/>
<line x1="210.0" y1="62" x2="250.0" y2="62" stroke="black"/>
<line x1="270.0" y1="62" x2="310.0" y2="62" stroke="black"/>
<line x1="330.0" y1="62" x2="370.0" y2="62" stroke="black"/>
<line x1="390.0" y1="62" x2="430.0" y2="62" stroke="black"/>
<line x1="450.0" y1="62" x2="490.0" y2="62" stroke="black"/>
<line x1="510.0" y1="62" x2="550.0" y2="62" stroke="black"/>
<line x1="570.0" y1="62" x2="610.0" y2="62" stroke="black"/>
<line x1="630.0" y1="62" x2="670.0" y2="62" stroke="black"/>
<text x="20.0" y="70" font-size="16" text-anchor="middle">0</text>
<text x="80.0" y="70" font-size="16" text-anchor="middle">5</text>
<text x="140.0" y="70" font-size="16" text-anchor="middle">10</text>
<text x="200.0" y="70" font-size="16" text-anchor="middle">3</text>
<text x="260.0" y="70" font-size="16" text-anchor="middle">8</text>
<text x="320.0" y="70" font-size="16" text-anchor="middle">1</text>
<text x="380.0" y="70" font-size="16" text-anchor="middle">6</text>
<text x="440.0" y="70" font-size="16" text-anchor="middle">11</text>
<text x="500.0" y="70" font-size="16" text-anchor="middle">4</text>
<text x="560.0" y="70" font-size="16" text-anchor="middle">9</text>
<text x="620.0" y="70" font-size="16" text-anchor="middle">2</text>
<text x="680.0" y="70" font-size="16" text-anchor="middle">7</text>
</svg>